<svg width="25" height="15" viewBox="0 0 25 15" fill="none" xmlns="http://www.w3.org/2000/svg">
<path fill-rule="evenodd" clip-rule="evenodd" d="M12.2928 14.4808H13.7335C13.7335 14.4808 14.1678 14.4329 14.3909 14.1933C14.614 13.9537 14.5886 13.5613 14.5886 13.5613C14.5886 13.5613 14.5601 11.628 15.4571 11.3435C16.3542 11.0589 17.4773 13.2109 18.6798 14.039C19.5903 14.6635 20.2822 14.5272 20.2822 14.5272L23.5004 14.4823C23.5004 14.4823 25.1837 14.3775 24.3855 13.0551C24.3196 12.9458 23.9197 12.0757 21.9894 10.2862C19.9707 8.41277 20.2418 8.71677 22.6723 5.4761C24.1533 3.50385 24.7449 2.29983 24.5592 1.78318C24.384 1.29198 23.2953 1.42077 23.2953 1.42077L19.6712 1.44473C19.5107 1.42513 19.3481 1.45381 19.204 1.5271C19.0664 1.62754 18.9562 1.7609 18.8835 1.91496C18.5097 2.88831 18.0637 3.83239 17.5492 4.73931C15.9364 7.47831 15.2909 7.62357 15.0274 7.45285C14.4134 7.056 14.5676 5.86097 14.5676 5.01037C14.5676 2.35524 14.9704 1.24856 13.7829 0.967018C13.389 0.871176 13.0985 0.80828 12.0922 0.797797C10.7983 0.785817 9.70511 0.797797 9.08513 1.10629C8.67331 1.30696 8.35433 1.75772 8.54901 1.78318C8.78861 1.81462 9.33072 1.93293 9.61825 2.32079C9.98964 2.82546 9.97616 3.96808 9.97616 3.96808C9.97616 3.96808 10.1903 7.09344 9.47748 7.4813C8.98928 7.74787 8.31989 7.20426 6.88075 4.71835C6.39258 3.85364 5.96089 2.95823 5.58838 2.03776C5.52158 1.88181 5.41897 1.74381 5.28887 1.63492C5.1207 1.52337 4.93172 1.44697 4.73329 1.41029L1.28895 1.43126C1.28895 1.43126 0.772301 1.44623 0.582114 1.67086C0.41439 1.87153 0.568632 2.28485 0.568632 2.28485C0.568632 2.28485 3.2642 8.59098 6.31768 11.7702C9.11657 14.6845 12.2943 14.4928 12.2943 14.4928L12.2928 14.4808Z" fill="black"/>
</svg>
